<?xml version="1.0" encoding="UTF-8" standalone="no" ?>
<!DOCTYPE svg PUBLIC "-//W3C//DTD SVG 1.1//EN" "http://www.w3.org/Graphics/SVG/1.1/DTD/svg11.dtd">
<svg xmlns="http://www.w3.org/2000/svg" xmlns:xlink="http://www.w3.org/1999/xlink" version="1.1" width="500pt" height="500pt" viewBox="0 0 500 500" xml:space="preserve">
<desc>Created with Fabric.js 4.6.0</desc>
<defs>
</defs>
<g transform="matrix(1 0 0 1 269.15 395.67)" id="BFuSyU99p9qkwBqCLsMIA"  >
<path style="stroke: rgb(0,0,0); stroke-width: 1; stroke-dasharray: none; stroke-linecap: butt; stroke-dashoffset: 0; stroke-linejoin: miter; stroke-miterlimit: 4; fill: rgb(255,255,255); fill-opacity: 0; fill-rule: nonzero; opacity: 1;" vector-effect="non-scaling-stroke"  transform=" translate(0, 0)" d="M 0 0 z" stroke-linecap="round" />
</g>
<g transform="matrix(1 0 0 1 249.49 249.5)" id="gSEmk8zBYDHtyPZzm8ssv"  >
<path style="stroke: none; stroke-width: 0; stroke-dasharray: none; stroke-linecap: butt; stroke-dashoffset: 0; stroke-linejoin: miter; stroke-miterlimit: 4; fill: rgb(30,215,96); fill-rule: nonzero; opacity: 1;" vector-effect="non-scaling-stroke"  transform=" translate(-249.25, -249.24)" d="M 249.24247 0.0119 C 386.91186 0.0119 498.49386 111.59985999999999 498.49386 249.24246 C 498.49386 386.89995 386.91184999999996 498.48195 249.24543999999997 498.48195 C 111.59390999999997 498.48195 -2.842170943040401e-14 386.89995 -2.842170943040401e-14 249.24246 C -2.842170943040401e-14 111.59092999999999 111.59390999999997 0 249.24543999999997 0 z M 363.5478 359.47917 C 368.04204 352.15744 365.72051 342.60347 358.39878 338.10924 C 292.69962999999996 297.95877 211.25876 288.61017 116.31434999999999 310.31047 C 107.93305 312.21531 102.71556999999999 320.54899 104.62933999999998 328.91243000000003 C 106.53417999999999 337.27587000000005 114.86784999999999 342.51418 123.22831999999998 340.60934000000003 C 209.98785999999998 320.78709000000003 283.65758 328.88266000000004 342.17786 364.62819 C 349.49959 369.12243 359.08332 366.8009 363.54779 359.47917 z M 394.055 291.60732 C 399.68024 282.48194 396.79321 270.51716 387.65593 264.89193 C 310.71822000000003 217.61319 198.18678 204.30907000000002 107.66815000000003 231.77449000000001 C 97.40880000000003 234.89962000000003 91.61391000000003 245.73340000000002 94.70928000000002 256.01061000000004 C 97.82845000000002 266.26996 108.68307000000001 272.06187000000006 118.96028000000003 268.95757000000003 C 198.20464000000004 244.90301000000002 300.33089 256.82909 367.32771 298.0183 C 376.46500000000003 303.64353 388.42978000000005 300.7565 394.05501000000004 291.60434000000004 z M 396.68606 220.93475 C 407.72819 227.51241000000002 422.07402 223.86047000000002 428.62191 212.78263 C 435.19956 201.71967 431.56846 187.41253 420.46681 180.83785 C 327.98083 125.93379 181.62061 120.76988 93.57827000000003 147.49718000000001 C 81.25336000000003 151.24138000000002 74.30664000000003 164.25680000000003 78.03894000000003 176.57874 C 81.77123000000003 188.89472 94.79558000000003 195.84739000000002 107.11157000000003 192.11212 C 183.80820000000003 168.83437 316.34345 173.22145 396.67416000000003 220.93474 z M 323.61072 419.83121 L 296.93572 419.83121 L 296.93572 393.15621 L 272.68572 393.15621 L 272.68572 419.83121 L 246.01072 419.83121 L 246.01072 444.08121 L 272.68572 444.08121 L 272.68572 470.75621 L 296.93572 470.75621 L 296.93572 444.08121 L 323.61072 444.08121 z M 223.92524 419.06342 L 197.24303 419.06342 L 197.24303 392.38121 L 172.98648 392.38121 L 172.98648 419.06342 L 146.30427 419.06342 L 146.30427 443.31997 L 172.98648 443.31997 L 172.98648 470.00218 L 197.24303 470.00218 L 197.24303 443.31997 L 223.92524 443.31997 z" stroke-linecap="round" />
</g>
</svg>